<svg width="96" height="116" viewBox="0 0 96 116" fill="none" xmlns="http://www.w3.org/2000/svg">
<path d="M54.0323 0.212111C80.8723 -2.51672 101.137 21.5127 94.5229 47.6132C88.5956 71.0046 60.9508 81.9297 40.3129 69.6206C35.1412 75.3138 31.3041 82.0966 26.8389 88.3395C21.5396 95.7505 14.4543 106.921 8.51707 113.301C6.99597 114.941 6.70156 115.736 4.21873 115.324C1.26485 114.843 -1.01191 112.006 0.460125 109.061C11.8242 94.7101 23.5907 80.6831 34.1402 65.704C34.4052 64.6144 31.206 62.2291 30.3718 61.1886C12.6584 39.1715 25.1117 3.14706 54.0323 0.202285V0.212111ZM78.8704 15.9372C61.2354 -1.26029 32.2364 10.3421 30.0185 34.4304C27.9479 56.9384 50.627 73.8708 71.4709 64.0156C89.8615 55.3285 93.2276 29.9347 78.8605 15.9274L78.8704 15.9372Z" fill="#8400FF"/>
<path d="M67.6928 13.6796C72.4425 13.2182 79.0372 20.4231 80.9901 24.3495C82.7467 27.8832 84.366 34.293 83.9833 38.2096C83.7968 40.1041 82.629 45.4439 79.9401 43.7949C77.5161 42.3028 79.0569 37.5028 79.0176 35.1666C78.9293 30.1114 76.0245 23.4464 72.5112 19.8145C71.1079 18.3716 66.5152 16.2317 66.1619 15.4268C65.8675 14.7495 66.9568 13.7483 67.6928 13.6796Z" fill="#8400FF"/>
</svg>
