<svg width="68" height="141" viewBox="0 0 68 141" fill="none" xmlns="http://www.w3.org/2000/svg">
<path d="M24.4986 0.0620254C31.0148 -0.409139 35.686 1.91724 41.7999 3.21295C46.8146 4.28288 61.1031 4.87183 62.0943 11.2718C62.6733 15.0411 62.4279 19.8215 62.9382 23.846C64.6458 37.4116 72.2807 55.0803 64.5771 67.7331C59.9451 75.3306 50.5633 81.1907 41.9078 82.987C40.2199 83.3404 36.5398 83.1833 35.4799 84.2238C33.6448 86.0299 32.634 100.459 32.1826 103.915C31.5643 108.695 30.2101 114.231 29.9451 118.913C29.7684 122.015 29.8666 123.703 32.8597 125.186C37.5898 127.532 48.5418 126.913 45.7351 135.473C42.9284 144.032 22.5948 140.047 16.0687 138.153C11.005 136.68 -3.43077 131.625 0.749804 124.204C3.99809 118.442 13.8018 126.746 19.0422 123.723C21.3877 122.369 22.5064 116.695 23.1738 114.064C25.7547 103.758 26.3239 93.441 27.6193 82.9576C27.4034 82.2017 22.32 81.0729 21.1423 80.6017C11.7017 76.8128 2.86953 69.0877 0.936264 58.673C-1.2129 47.1294 5.83323 33.0141 8.77729 21.8828C11.7214 10.7516 9.68013 1.16142 24.5182 0.0718509L24.4986 0.0620254ZM54.4593 11.4485L29.6801 6.23625C25.5192 6.22644 21.0148 6.42276 19.2091 10.8694C27.5702 13.5786 35.7547 15.2375 44.636 14.462C47.8646 14.1773 50.7498 12.9111 53.8803 12.2043C54.4789 12.0669 54.5476 12.4596 54.4593 11.4485ZM17.5506 14.5896C14.9304 14.8154 13.7528 23.316 12.9775 25.7012C7.85482 41.2693 -2.11575 57.1515 13.6742 70.4324C23.7724 78.933 37.3151 80.3465 49.1109 74.4864C67.9628 65.122 62.742 45.0092 59.317 28.2337C58.9049 26.2117 58.0315 20.3614 57.109 18.9479C56.3828 17.8485 53.2621 18.997 51.9667 19.1049C43.8803 19.7822 35.5879 20.646 27.6487 18.5356C25.8528 18.0546 18.1002 14.5503 17.5604 14.5994L17.5506 14.5896ZM39.474 132.94C30.318 129.22 20.1119 129.672 10.5437 127.561C9.68994 127.542 8.58101 127.924 8.46325 128.876C8.46325 130.143 14.3121 132.469 15.5683 132.901C21.2699 134.874 29.896 136.081 35.8332 135.149C37.109 134.953 38.3357 134.697 39.4446 133.991L39.474 132.94Z" fill="#8400FF"/>
<path d="M55.853 43.3799C56.8049 44.3418 57.9727 46.5602 58.4732 47.8461C64.5085 63.3553 46.5203 75.6841 32.4378 73.8878C17.2857 71.9639 5.97071 63.208 9.36619 46.5995C10.691 40.1308 13.0463 38.0302 19.4545 37.1566C28.0512 35.9787 41.9079 37.7357 50.2494 40.3566C52.0453 40.9259 54.5281 42.0253 55.853 43.3701V43.3799ZM45.2543 45.932C36.6675 43.9001 27.1974 41.5345 18.4437 43.6351C17.0208 45.7455 24.4594 46.2069 25.5291 46.305C30.7793 46.7958 37.904 47.051 43.164 46.7075C43.7136 46.6682 45.1758 46.6682 45.2543 45.932ZM26.8736 50.9087H17.8745C17.6292 50.9087 17.1778 51.9884 16.9226 52.2535C17.2857 52.7835 17.6488 52.8326 18.2475 52.862C19.484 52.9209 24.2043 52.067 25.5487 51.6939C26.0787 51.5467 26.7362 51.6449 26.8736 50.9087ZM53.3014 53.2056L51.0737 53.4608L42.958 56.6412C46.8834 57.6031 50.9854 56.6804 53.3014 53.2056ZM23.2327 63.9344C24.8127 64.1994 27.5998 63.9344 29.3662 63.9344C29.4447 63.9344 30.063 63.2866 29.9452 63.1688L17.5016 59.7136C17.5605 60.4596 18.6891 61.3626 19.2582 61.7945C20.0924 62.4228 22.3201 63.7774 23.2425 63.9344H23.2327ZM48.326 61.6375C43.4781 61.0289 38.6989 62.2363 33.7725 60.8718C34.273 61.6964 35.7548 62.1087 36.6282 62.413C39.9746 63.5712 45.7744 64.759 48.326 61.6375ZM40.6616 68.9111C39.6508 69.1859 33.0168 67.7332 33.007 69.0976C35.0777 70.4228 37.8058 70.0792 40.0826 69.6571C40.7107 69.5393 40.7401 69.9025 40.6616 68.9013V68.9111Z" fill="#8400FF"/>
<path d="M14.5 45L26.5 40.5L42 42.5L50 49L54 56.5L50 68.5L40 72H26.5L19.5 68.5L14.5 56.5V45Z" fill="#8400FF" stroke="#8400FF"/>
</svg>
