<svg width="272" height="296" viewBox="0 0 272 296" fill="none" xmlns="http://www.w3.org/2000/svg">
<path d="M124.399 101.608C127.469 104.007 128.825 108.32 130.597 111.62C132.119 114.451 134.703 117.943 135.434 121.072C136.87 127.198 133.811 137.151 131.66 143.058C131.35 143.906 130.87 144.892 130.325 145.606C129.684 146.438 126.935 148.666 126.914 149.338C126.892 149.909 127.138 150.991 127.255 151.609C127.987 155.501 129.273 159.323 129.802 163.253L133.929 180.302C136.069 179.833 138.029 179.412 140.271 179.481C143.896 179.587 149.202 181.064 148.369 185.681C146.997 193.278 129.145 198.599 123.924 192.947C119.899 188.592 126.503 183.884 129.818 181.97C130.533 181.555 131.969 181.416 132.007 180.376C132.023 179.833 131.777 178.495 131.638 177.919C129.882 170.663 128.222 163.29 126.561 155.981C126.065 153.806 125.798 151.567 125.136 149.445C124.047 148.837 122.942 148.645 121.842 147.963C117.966 145.569 108.704 137.449 106.638 133.579C104.358 129.314 104.406 121.941 104.353 117.063C104.326 114.584 104.225 111.124 104.476 108.73C104.54 108.149 105.175 106.033 105.517 105.622C105.778 105.308 106.451 104.934 106.835 104.737C110.583 102.834 114.923 102.258 118.965 101.496C121.383 101.037 122.2 99.875 124.405 101.602L124.399 101.608ZM107.23 106.47C106.483 107.467 109.195 107.403 109.793 107.339C112.062 107.088 120.363 104.833 121.842 103.324C122.002 103.159 122.408 102.749 122.312 102.493C122.077 101.869 120.769 102.781 120.331 102.887C118.943 103.223 117.358 103.239 115.954 103.543C114.55 103.847 107.946 105.521 107.23 106.475V106.47ZM128.862 144.796C130.234 143.005 132.877 134.053 133.384 131.526C135.311 121.925 133.486 120.224 129.145 112.211C128.115 110.314 127.207 108.117 126.097 106.283C125.766 105.734 124.853 104.348 124.458 103.927C123.839 103.26 122.483 104.972 121.73 105.425C119.2 106.939 111.33 109.327 108.496 109.093C108.069 109.055 106.915 108.581 106.665 108.666C105.912 108.927 106.227 112.355 106.205 113.214C106.072 119.547 105.501 129.325 109.179 134.693C111.021 137.38 119.333 144.465 122.243 146.262C123.476 147.024 124.757 147.707 126.23 147.158C126.743 146.966 128.489 145.281 128.857 144.796H128.862ZM125.318 192.302C129.935 196.429 145.102 191.807 146.768 185.862C147.163 184.45 146.741 183.271 145.583 182.328C143.517 180.643 137.815 180.856 135.37 181.523C133.47 182.04 134.564 183.538 134.81 184.807C134.991 185.756 135.407 187.307 133.929 187.19C133.341 187.142 132.946 183.415 132.583 182.839C131.681 181.917 126.642 185.798 125.857 186.657C124.453 188.203 123.454 190.644 125.312 192.302H125.318Z" fill="#F8F7FF"/>
<path d="M120.07 142.232C116.835 140.121 113.53 137.236 110.941 134.363C109.59 132.859 108.741 131.308 110.071 129.373C110.791 128.323 113.615 127.006 114.859 126.664C116.189 126.297 117.641 126.313 118.954 125.971C121.57 125.284 124.458 123.876 127.127 123.221C128.409 122.906 132.151 122.149 132.727 123.812C132.872 124.223 133.037 125.428 133.037 125.881C133.037 126.59 132.268 129.837 132.039 130.706C131.329 133.414 128.43 142.066 126.572 143.703C124.533 145.5 121.864 143.405 120.07 142.232Z" fill="#F8F7FF"/>
<path d="M133.064 98.0465C140.837 92.5554 149.656 88.7009 158.924 86.5471C168.192 84.3933 177.785 83.9561 187.197 85.1503C192.509 85.822 197.751 87.0695 202.807 88.8075C204.27 89.3086 204.9 86.9949 203.447 86.4938C194.233 83.3324 184.431 81.8663 174.694 82.1328C164.988 82.3994 155.294 84.3506 146.314 88.0558C141.216 90.1616 136.358 92.7899 131.852 95.9727C131.323 96.3459 131.072 97.0176 131.419 97.6147C131.724 98.1372 132.53 98.4197 133.064 98.0465Z" fill="#F8F7FF" stroke="#F8F7FF" stroke-width="2"/>
<path d="M201.68 87.9276C199.913 102.7 198.739 117.537 198.072 132.395C197.404 147.253 197.239 162.181 197.479 177.082C197.618 185.478 197.885 193.875 198.264 202.266C198.333 203.802 200.735 203.812 200.666 202.266C199.988 187.397 199.673 172.513 199.801 157.633C199.929 142.754 200.511 127.848 201.638 112.995C202.273 104.625 203.079 96.2656 204.077 87.9329C204.152 87.2878 203.469 86.7334 202.876 86.7334C202.161 86.7334 201.75 87.2878 201.675 87.9329L201.68 87.9276Z" fill="#F8F7FF" stroke="#F8F7FF" stroke-width="2"/>
<path d="M133.48 212.7C140.874 207.646 149.16 204.01 157.867 201.894C166.574 199.777 175.612 199.207 184.501 200.198C189.476 200.753 194.399 201.851 199.15 203.424C200.623 203.909 201.253 201.595 199.791 201.11C191.067 198.226 181.8 197.005 172.628 197.399C163.483 197.794 154.391 199.761 145.935 203.269C141.141 205.258 136.555 207.699 132.268 210.631C130.998 211.5 132.199 213.58 133.48 212.705V212.7Z" fill="#F8F7FF" stroke="#F8F7FF" stroke-width="2"/>
<path d="M133.309 96.1645C126.375 89.186 117.774 83.9294 108.421 80.8693C98.6033 77.6545 87.9102 76.9242 77.7509 78.8061C71.8304 79.9043 66.1181 81.9568 60.8116 84.7877C59.4503 85.5181 60.6621 87.5866 62.0235 86.8615C71.1044 82.0101 81.3277 79.787 91.6045 80.2455C101.251 80.6773 110.69 83.4016 119.061 88.2157C123.657 90.86 127.875 94.1013 131.612 97.8599C132.701 98.9581 134.404 97.2628 133.309 96.1645Z" fill="#F8F7FF" stroke="#F8F7FF" stroke-width="2"/>
<path d="M59.6852 85.9501C59.461 101.027 59.2368 116.103 59.0125 131.185C58.7883 146.262 58.5641 161.339 58.3399 176.421C58.2117 184.935 58.0836 193.449 57.9608 201.963C57.9395 203.509 60.3418 203.509 60.3632 201.963C60.5874 186.886 60.8116 171.809 61.0359 156.727C61.2601 141.651 61.4843 126.574 61.7085 111.492C61.8366 102.978 61.9648 94.464 62.0875 85.9501C62.1089 84.404 59.7065 84.404 59.6852 85.9501Z" fill="#F8F7FF" stroke="#F8F7FF" stroke-width="2"/>
<path d="M59.8186 203.653C69.2679 200.704 79.1389 199.228 89.042 199.436C98.7742 199.638 108.458 201.488 117.534 205.023C122.702 207.038 127.645 209.629 132.263 212.694C133.555 213.553 134.761 211.473 133.475 210.62C125.115 205.076 115.703 201.147 105.896 199.014C96.1102 196.887 85.9669 196.477 76.0319 197.703C70.3143 198.412 64.6767 199.617 59.1727 201.333C57.7046 201.792 58.3292 204.111 59.8133 203.647L59.8186 203.653Z" fill="#F8F7FF" stroke="#F8F7FF" stroke-width="2"/>
<path d="M60.4806 99.5659H53.5618C52.9319 99.5659 52.334 100.115 52.3607 100.765C52.3874 101.416 52.8892 101.965 53.5618 101.965H60.4806C61.1106 101.965 61.7085 101.416 61.6818 100.765C61.6551 100.115 61.1533 99.5659 60.4806 99.5659Z" fill="#F8F7FF" stroke="#F8F7FF" stroke-width="2"/>
<path d="M51.8642 100.787C51.2075 115.378 50.5509 129.97 49.8942 144.556C49.2429 159.1 48.5863 173.649 47.935 188.192C47.5666 196.397 47.1983 204.602 46.8299 212.807C46.7605 214.353 49.1629 214.347 49.2323 212.807C49.8889 198.215 50.5455 183.623 51.2022 169.037C51.8535 154.494 52.5101 139.945 53.1614 125.401C53.5298 117.196 53.8982 108.992 54.2665 100.787C54.3359 99.2409 51.9336 99.2462 51.8642 100.787Z" fill="#F8F7FF" stroke="#F8F7FF" stroke-width="2"/>
<path d="M48.0311 214.006C58.7937 214.027 69.5509 214.027 80.3134 214C91.0546 213.968 101.796 213.905 112.537 213.777C123.316 213.649 134.089 213.467 144.862 213.201C155.635 212.934 166.328 212.593 177.054 212.151C187.8 211.708 198.541 211.159 209.272 210.493C210.601 210.407 211.925 210.327 213.254 210.237C214.792 210.135 214.803 207.736 213.254 207.838C202.519 208.536 191.777 209.112 181.031 209.581C170.306 210.05 159.57 210.418 148.839 210.7C138.066 210.983 127.293 211.186 116.514 211.324C105.773 211.463 95.0372 211.543 84.296 211.585C73.5388 211.628 62.7816 211.628 52.0243 211.612C50.695 211.612 49.3657 211.612 48.0364 211.607C46.4883 211.607 46.4883 214 48.0364 214.006H48.0311Z" fill="#F8F7FF" stroke="#F8F7FF" stroke-width="2"/>
<path d="M215.422 209.037C215.064 194.878 214.605 180.723 214.114 166.569C213.623 152.436 213.11 138.308 212.662 124.175C212.406 116.205 212.176 108.235 211.973 100.264C211.936 98.7238 209.533 98.7184 209.571 100.264C209.928 114.424 210.388 128.579 210.879 142.733C211.37 156.887 211.882 170.994 212.331 185.127C212.587 193.097 212.817 201.067 213.019 209.037C213.057 210.578 215.459 210.583 215.422 209.037Z" fill="#F8F7FF" stroke="#F8F7FF" stroke-width="2"/>
<path d="M210.772 99.0698H202.86C202.23 99.0698 201.632 99.6189 201.659 100.269C201.686 100.92 202.188 101.469 202.86 101.469H210.772C211.402 101.469 212 100.92 211.973 100.269C211.946 99.6189 211.445 99.0698 210.772 99.0698Z" fill="#F8F7FF" stroke="#F8F7FF" stroke-width="2"/>
</svg>
