<svg width="216" height="236" viewBox="0 0 216 236" fill="none" xmlns="http://www.w3.org/2000/svg">
<path d="M118.917 79.5452C119.561 79.6429 120.913 80.3443 121.168 80.9649C121.342 81.3899 121.575 84.0678 121.609 84.7691C121.715 86.8221 122.054 90.0101 120.176 91.281C119.747 91.57 118.912 91.6763 118.828 91.7698C118.098 92.5902 119.226 100.152 119.336 101.767C119.722 107.476 118.772 112.729 122.719 117.337C127.311 122.701 130.706 123.522 132.864 131.219C136.493 144.15 134.848 165.538 134.306 179.319C133.903 189.512 133.144 199.704 132.394 209.88C132.5 210.497 134.942 210.331 135.582 210.305C139.224 210.152 142.946 209.557 146.583 209.447C147.652 209.413 149.229 209.306 150.233 209.464C153.027 209.897 154.587 213.557 150.53 213.969C146.473 214.382 141.712 213.884 137.566 213.982C135.862 214.025 133.131 213.697 131.631 213.982C130.791 214.139 130.075 215.716 128.85 216.286C124.72 218.211 111.434 218.118 106.486 217.948C101.895 217.791 96.651 217.408 92.2462 216.095C91.0973 215.75 89.2235 214.62 88.4476 214.526C82.1224 213.757 74.4108 215.092 68.4205 214.229C66.7035 213.982 65.987 212.669 66.7332 211.126L86.985 210.254L87.409 209.829C87.2521 204.75 87.3199 199.645 87.1673 194.57C86.7052 179.323 86.1626 164.004 86.0269 148.753C85.9676 142.182 85.8149 136.622 88.0025 130.335C90.5122 123.13 94.2769 121.809 99.449 117.192C102.836 114.17 103.108 111.514 103.532 107.136C104.015 102.162 103.761 97.1 104.63 92.1609C104.502 91.672 101.874 91.4765 101.395 90.0356C101.102 89.1515 101.128 82.24 101.34 81.1604C101.522 80.2253 102.302 80.102 103.18 79.9022C104.897 79.5154 106.843 79.5579 108.598 79.5324C109.806 74.0577 107.661 67.0698 103.684 63.121C102.836 62.2794 100.026 59.7588 99.042 61.0425C97.9482 62.4749 97.0113 65.293 95.7395 67.0698C93.7257 69.8836 91.8477 71.0568 88.8122 72.5742C86.9596 73.5009 81.7917 76.1192 80.1086 76.5825C77.6498 77.2626 77.6498 75.6389 78.5612 73.9004C79.566 71.9919 81.9825 68.9188 83.373 67.125C85.196 64.7745 87.2733 62.6237 89.1302 60.3071C86.0311 59.3805 82.6014 58.3476 80.0959 56.2011C77.5904 54.0545 76.8951 50.9601 75.14 48.4353C74.4998 47.5129 71.8375 45.0858 71.9011 44.3292C72.0749 43.4409 72.6726 43.3261 73.4612 43.2963C77.9847 43.1263 87.5997 47.904 91.11 50.8198C92.8355 52.2523 94.4465 54.6156 96.2101 55.895C97.3759 56.7409 98.546 56.8854 99.6652 57.523C103.46 59.6908 106.19 62.7682 108.746 66.2409C109.157 65.9731 109.136 65.6968 109.183 65.2718C109.959 58.2073 107.801 49.7232 106.626 42.7608C106.08 42.9988 105.957 43.8532 105.499 44.3165C103.218 46.6245 99.9069 43.3261 99.2286 40.984C98.8385 39.6366 99.3727 38.3827 98.5799 37.3838C97.9016 37.2393 92.9118 44.0529 89.8255 41.3538C86.9045 38.7992 90.597 35.488 92.225 33.5625C91.6527 32.8102 90.6437 33.2735 89.8551 33.1162C86.8239 32.5127 84.6364 29.499 85.9676 26.4343C87.515 22.8766 92.6489 23.3697 95.6165 24.6448C95.3537 22.6216 94.7135 17.6017 96.3118 16.148C98.864 13.8229 101.564 17.1511 102.311 19.4932C102.544 20.22 102.955 24.0838 103.375 24.0795C105.689 22.1625 108.543 19.5654 111.557 21.8225C115.071 24.4536 111.587 27.718 110.009 30.3066C115.818 31.0377 117.891 38.2339 110.968 39.3348C110.268 39.4453 108.551 39.0033 108.593 39.7896C108.649 40.8905 109.433 42.5907 109.653 43.8277C110.611 49.1961 110.709 54.7686 111.459 60.1286C111.51 60.4814 111.828 63.529 112.549 62.8532C114.296 58.4454 116.275 54.046 118.811 50.025C120.01 48.125 122.181 44.9286 123.567 43.1901C124.483 42.0424 126.289 40.9415 126.598 39.4368C127.243 36.3212 124.504 33.384 123.423 30.5829C121.698 26.1028 122.384 20.8916 123.995 16.4498C124.407 15.3149 124.775 13.4531 126.111 13.7166C128.727 14.231 131.181 21.5419 131.427 23.9733C131.906 28.7339 130.071 32.3171 129.206 36.8142C135.658 32.7422 139.071 25.0869 145.311 20.8448C147.109 19.6207 151.425 17.4826 153.341 18.9831C155.389 20.5856 153.43 23.1699 152.209 24.6491C149.263 28.2323 143.904 31.739 139.66 33.5753C138.231 34.1916 136.841 34.1959 135.484 35.0502C133.822 36.0959 131.393 39.3008 130.054 40.9288C124.674 47.4704 112.816 63.0445 112.82 71.4818C112.82 71.9069 112.634 72.3107 113.248 72.1917C115.076 70.6955 115.911 68.4554 117.229 66.5597C117.908 65.5821 119.943 63.9668 119.832 62.7852C119.675 61.0722 118.463 61.0807 119.65 58.7982C121.138 55.9418 124.051 55.8823 126.942 56.0608C126.882 54.1268 125.903 52.4988 125.92 50.4968C125.95 47.3641 128.989 42.5822 132.504 44.3972C134.526 45.4429 133.695 49.0219 134.539 50.8453C137.328 50.9516 139.529 49.5702 142.276 51.2959C146.418 53.9015 142.284 58.7046 139.075 59.7418C140.258 61.1062 141.682 61.4293 142.573 63.1635C144.489 66.8785 140.919 70.2067 137.341 68.1282C136.616 67.7073 134.234 65.1485 133.454 65.7011C132.58 68.2812 129.651 72.6805 126.581 72.4127C122.418 72.0514 124.428 66.0496 125.53 63.7033C124.144 63.5673 122.558 64.0816 121.575 65.055C119.688 66.921 115.084 74.1852 114.376 76.7186C114.118 77.6494 113.855 78.5633 113.952 79.5494C115.491 79.7109 117.412 79.3284 118.891 79.5494L118.917 79.5452ZM127.239 32.5637C128.981 28.6361 130.092 24.02 128.51 19.8332C128.32 19.3316 127.476 17.4146 126.827 17.5634C124.78 21.4527 124.093 28.3513 126.615 32.1981C126.789 32.4659 126.581 32.7082 127.243 32.5637H127.239ZM99.5804 26.056C100.093 25.6565 101.149 18.354 98.9106 18.1457C97.2826 18.4305 96.8163 25.6905 99.5804 26.056ZM150.674 21.814C148.215 21.9925 145.723 23.765 143.895 25.3462C142.687 26.3918 141.076 27.9433 140.512 29.4522C141.038 29.9581 150.267 23.2719 150.674 21.814ZM110.001 23.2464C108.653 22.2815 103.879 27.2887 103.443 28.9422C102.565 32.2534 107.339 28.0921 108.059 27.3397C108.602 26.7701 111.023 23.9775 110.001 23.2507V23.2464ZM96.4772 30.2981C96.0532 28.9762 94.8789 26.9572 93.4459 26.6894C91.6357 26.3493 88.5706 26.3918 88.3459 28.8147C88.0406 32.1088 94.6669 30.3194 96.4772 30.2981ZM107.69 32.3469C107.084 32.4786 106.576 33.061 105.91 33.129C104.939 33.2267 102.315 31.9346 101.683 32.8314C101.403 33.2267 101.416 38.8587 101.59 39.7556C101.789 40.814 102.323 43.1391 103.693 42.2082C105.732 40.8268 103.638 37.1628 105.516 35.8281C107.394 34.4934 110.87 37.7664 112.227 35.4795C113.706 32.9802 109.598 31.9346 107.686 32.3469H107.69ZM92.2462 39.0713C92.9966 39.8364 98.4655 34.6762 99.0335 33.8473C99.7373 32.8229 98.2408 32.1981 97.1682 32.8357C96.4432 33.2607 91.7544 38.574 92.2462 39.0755V39.0713ZM77.0054 46.4333C78.4129 49.3109 79.7059 52.3288 81.8341 54.7516C83.0635 55.8653 84.4032 56.3796 85.976 56.8216C88.1339 57.4252 91.6315 58.4751 93.3696 56.7621C89.3676 51.7422 83.4748 47.3429 77.0054 46.4333ZM129.778 56.0523C129.918 54.9854 131.275 54.4711 131.724 53.6125C132.678 51.772 131.02 48.9028 130.63 46.9986C129.363 48.4055 128.379 50.1398 128.26 52.0525C128.18 53.3659 128.125 55.9163 129.782 56.0523H129.778ZM134.302 57.7525C135.366 57.812 136.442 57.6633 137.464 57.387C141.606 56.2733 142.933 51.0961 137.485 53.1619C135.51 53.91 134.318 55.6145 134.302 57.7525ZM122.49 61.3953C124.746 61.7566 126.467 62.1476 127.824 59.8906C128.506 58.7556 127.196 58.2031 126.183 58.0883C124.678 57.9183 121.443 59.5803 122.49 61.3953ZM137.502 65.0167C138.02 65.5268 139.245 66.2239 139.948 65.8286C142.191 63.7713 139.283 61.7948 137.32 61.0977C135.531 60.4601 131.665 60.0436 130.232 61.4548C129.502 62.1731 126.391 66.938 126.183 67.8646C126.052 68.4469 126.124 69.0505 126.119 69.6414C129.507 69.9176 130.596 62.2666 132.245 61.7778C135.522 60.8044 136.048 63.5928 137.502 65.021V65.0167ZM83.496 72.1832C86.6416 70.9633 90.6818 69.3821 92.7592 66.6192C93.8657 65.1485 97.253 59.0744 92.7295 61.4973C90.9065 62.4749 84.5007 69.2716 83.7164 71.1376C83.568 71.4904 83.4196 71.7794 83.496 72.1874V72.1832ZM105.143 82.4313C103.883 82.8054 104.057 87.0007 105.422 87.413C106.69 87.2344 108.216 87.7488 109.331 87.7615C111.464 87.7828 114.656 87.4555 116.704 87.0049C117.013 86.9369 117.373 87.1962 117.848 86.9879C119.268 86.3588 118.726 83.2262 118.026 82.9839L105.143 82.4313ZM114.541 90.8644C113.117 91.6763 109.937 90.3416 109.111 92.0673C108.564 93.215 108.216 97.6653 108.055 99.2126C107.538 104.16 108.008 110.026 106.215 114.629C104.422 119.233 99.7924 121.464 96.333 124.814C92.2589 128.763 90.5165 134.403 89.9908 139.963C90.8599 162.593 88.9988 186.243 91.712 208.699C92.0681 211.661 93.8317 212.108 96.422 212.749C103.214 214.428 113.549 214.173 120.625 213.693C122.605 213.561 126.548 212.936 127.455 210.917C128.404 208.813 128.985 203.02 129.218 200.516C130.155 190.604 130.889 179.344 131.207 169.398C131.554 158.623 132.525 136.737 127.01 127.738C124.682 123.942 119.947 121.281 117.785 117.46C115.258 112.997 115.779 108.347 115.389 103.45C115.054 99.2593 114.474 95.064 114.541 90.8559V90.8644Z" fill="#F8F7FF"/>
<path d="M125.755 131.13C126.615 131.997 127.701 139.266 127.807 140.817C128.532 151.732 127.743 163.524 127.234 174.482C126.95 180.581 127.039 187.403 126.081 193.418C125.818 195.076 125.496 197.116 123.72 197.838C123.27 197.732 122.986 196.185 122.986 195.717C122.999 191.016 123.885 185.524 124.135 180.717C124.737 169.088 125.857 155.715 125.263 144.213C125.089 140.8 123.508 134.356 123.839 131.466C123.987 130.144 125.038 130.416 125.755 131.13Z" fill="#F8F7FF"/>
<path d="M124.636 205.978C124.123 206.492 122.397 206.543 122.02 205.766C121.791 205.298 121.778 203.079 121.888 202.518C122.16 201.128 124.614 201.005 124.949 201.983C125.144 202.552 125.064 205.553 124.64 205.982L124.636 205.978Z" fill="#F8F7FF"/>
</svg>
