<svg width="228" height="249" viewBox="0 0 228 249" fill="none" xmlns="http://www.w3.org/2000/svg">
<path d="M150.279 192.107C150.914 192.197 151.438 192.506 151.576 193.17C151.223 195.749 148.457 196.063 146.327 196.206C141.1 196.565 135.314 196.511 130.043 196.659C118.242 196.996 106.451 197 94.7129 196.789C92.9721 196.758 85.5257 196.874 84.8366 195.233C84.2056 193.717 85.1856 193.358 85.3557 192.444C86.3626 187.013 85.0917 178.505 85.1409 172.733C85.2841 155.211 91.5983 143.937 103.793 132.043C108.728 127.227 113.955 124.137 112.174 115.952C110.505 108.288 104.643 105.171 99.8367 99.9868C86.2328 85.3083 85.2125 71.3609 86.9533 51.9331C87.1457 49.8118 87.723 47.7264 87.8662 45.5962C85.0424 45.058 85.1051 42.8471 87.7006 41.8021C90.7122 40.5868 96.5163 40.9949 99.9486 40.9276C110.581 40.7213 121.2 40.7707 131.855 40.7213C136.415 40.6989 147.468 39.636 151.263 41.8784C153.326 43.0982 151.823 43.8606 151.357 45.0805C150.578 47.1345 151.523 58.4045 151.415 61.6873C151.057 72.5628 148.332 85.7971 141.776 94.6365C133.538 105.741 116.246 113.688 130.71 129.11C134.616 133.277 138.116 135.734 141.503 140.73C148.762 151.426 150.708 161.248 151.187 174.088C151.411 180.097 151.062 186.16 150.274 192.107H150.279ZM146.43 191.892C146.936 185.99 147.365 180.03 147.119 174.092C146.658 162.948 143.92 152.853 137.341 143.771C131.963 136.349 122.185 130.124 120.484 120.549C118.573 109.813 131.564 101.072 137.118 93.3718C145.951 81.1106 147.374 66.4277 146.873 51.7178C146.806 49.7132 146.985 47.6861 146.775 45.6904L91.925 45.7038C90.8823 55.2159 89.8844 65.5263 91.7683 74.98C92.9094 80.7115 96.0912 86.8286 99.2908 91.6901C105.641 101.346 115.821 103.902 116.998 117.235C117.916 127.653 103.394 136.151 97.8453 144.219C89.6517 156.135 88.1749 167.011 89.8978 181.339L89.6606 191.663C93.16 191.766 96.6908 191.524 100.186 191.654C104.383 191.807 108.617 192.461 112.832 192.583C122.297 192.847 132.11 191.901 141.557 191.654C143.154 191.614 144.882 191.551 146.426 191.892H146.43Z" fill="#F8F7FF"/>
<path d="M121.124 168.795C120.86 173.89 120.565 179.128 121.2 184.2C121.473 184.604 123.67 184.357 124.355 184.438C125.34 184.55 130.54 186.021 129.654 187.551C126.154 189.851 122.113 188.873 118.269 188.932C115.718 188.968 111.803 189.9 109.436 188.743C107.261 187.681 109.637 186.124 110.774 185.514C112.707 184.478 114.635 184.066 116.775 183.707L117.034 169.343C116.886 168.585 114.591 168.41 113.745 168.109C110.286 166.876 105.211 161.414 103.967 157.965C102.302 153.35 103.524 147.359 105.032 142.816C105.22 142.246 105.659 141.533 106.236 141.3C107.091 140.954 109.749 140.77 110.818 140.676C114.864 140.327 126.123 139.376 129.524 140.51C131.39 141.134 131.448 142.506 131.895 144.255C133.502 150.552 134.384 157.279 130.338 162.737C128.056 165.818 125.058 168.329 121.129 168.804L121.124 168.795ZM107.574 145.242C106.464 150.682 106.182 156.014 110.129 160.387C114.958 165.741 121.491 167.176 126.754 161.4C131.112 156.619 128.678 149.574 127.676 143.937L120.314 143.843L107.578 145.242H107.574Z" fill="#F8F7FF"/>
<path d="M121.124 78.6573C120.86 83.7519 120.565 88.99 121.2 94.0622C121.473 94.4659 123.67 94.2192 124.355 94.2999C125.34 94.412 130.54 95.883 129.654 97.4123C126.154 99.713 122.113 98.7353 118.269 98.7936C115.718 98.8295 111.803 99.7623 109.436 98.6052C107.261 97.5424 109.637 95.9862 110.774 95.3763C112.707 94.3403 114.635 93.9277 116.775 93.5689L117.034 79.2044C116.886 78.4465 114.591 78.2716 113.745 77.9711C110.286 76.7378 105.211 71.2754 103.967 67.8267C102.302 63.2119 103.524 57.2204 105.032 52.6773C105.22 52.1078 105.659 51.3947 106.236 51.1615C107.091 50.8162 109.749 50.6323 110.818 50.5381C114.864 50.1883 126.123 49.2376 129.524 50.3722C131.39 50.9956 131.448 52.3679 131.895 54.1169C133.502 60.4135 134.384 67.1405 130.338 72.5984C128.056 75.6794 125.058 78.1909 121.129 78.6662L121.124 78.6573ZM107.574 55.1081C106.464 60.548 106.182 65.8803 110.129 70.2529C114.958 75.6077 121.491 77.0428 126.754 71.2665C131.112 66.4858 128.678 59.4403 127.676 53.803L120.314 53.7088L107.578 55.1081H107.574Z" fill="#F8F7FF"/>
</svg>
