<svg width="109" height="122" viewBox="0 0 109 122" fill="none" xmlns="http://www.w3.org/2000/svg">
<path d="M77.792 12.6122C78.9107 -2.42582 97.3209 -2.6025 99.9215 12.1312C100.147 13.3975 99.735 14.9876 100.216 16.0576C100.579 16.8723 102.512 17.8932 103.278 18.7373C112.12 28.3962 107.812 50.5311 107.272 62.6047C106.683 75.8071 108.41 105.903 98.0962 115.12C92.3454 120.254 82.7576 121.127 75.3189 121.451C61.3837 122.07 45.1423 121.824 31.2463 121.059C17.3896 120.293 1.82532 118.958 0.421983 101.702C-0.618253 88.9114 0.77527 74.374 0.814524 61.4955C0.843965 50.9728 0 40.4796 0 30.0649C0 24.6661 1.43278 20.1901 6.17272 17.3435C4.44553 -1.29698 27.2522 -7.81477 31.4328 12.4551L46.9774 13.2993C47.6938 13.1619 47.8999 10.1091 48.1845 9.25513C49.8135 4.4257 53.366 0.76435 58.8027 1.54962C63.8469 2.276 65.3876 8.66618 65.8979 12.8478L77.792 12.6318V12.6122ZM14.7792 13.3778C17.4583 13.0244 21.4917 13.3778 24.3572 13.3778C26.1433 13.3778 24.0137 8.01832 22.0118 6.91894C16.7713 4.03306 12.4632 9.08826 12.2964 14.1435C13.1894 14.4281 14.21 13.4563 14.789 13.3778H14.7792ZM93.8862 13.368C93.5329 6.32999 84.1119 4.93613 84.3081 12.9852L93.8862 13.368ZM59.7939 13.3778C60.157 10.7668 58.8911 6.34962 55.6133 8.24409C54.2493 9.03918 52.738 12.1312 53.8567 13.3778H59.7939ZM7.33072 37.1127L25.476 38.6048C44.2394 37.6133 63.0913 38.9876 81.8351 38.3005C87.213 38.1041 94.2394 38.1238 99.4504 37.525C100.157 37.4465 101.237 37.26 101.492 36.4943C101.757 35.6894 101.649 31.1741 101.551 30.0453C101.227 26.433 100.186 23.125 96.8302 21.3484C95.054 20.406 85.1619 17.6478 84.0922 19.1005C84.0922 24.9901 88.2237 22.8404 91.1089 23.9987C94.9264 25.5398 92.3749 30.3692 88.734 30.6244C82.895 31.0269 77.9882 23.979 77.2326 18.7177L76.791 18.3938L53.9156 19.1692L53.4347 19.9054C54.1904 22.2122 56.369 23.4195 58.6261 23.9201C59.735 24.1655 60.8145 23.3312 62.1099 24.6563C64.2787 26.8845 62.0216 29.8293 59.421 30.4183C54.897 31.4391 51.2071 27.7974 49.1462 24.2146C48.4985 23.0956 47.0854 18.9925 46.5162 18.7962C37.2031 19.5324 23.4347 16.8625 14.8871 20.7496C11.5604 22.2711 15.2601 24.5287 17.4877 24.8428C20.0589 25.206 25.1717 21.6134 25.3386 26.2171C25.6133 33.5397 12.8754 32.4109 9.22473 27.3557C8.10599 25.8048 8.6261 23.2625 6.54563 22.9484L7.33072 37.1029V37.1127ZM7.70363 43.6403C7.27184 48.6857 7.47792 53.7311 7.33072 58.7863C6.9578 71.7728 5.88812 87.7139 6.93817 100.524C7.98822 113.333 19.5289 114.727 30.4907 115.277C44.2493 115.964 61.9529 116.003 75.7017 115.297C87.6546 114.678 95.5545 113.314 98.6752 100.73C103.111 82.8452 100.736 63.2035 101.786 44.936L101.178 43.0514C100.658 42.7078 97.2915 42.8256 96.3592 42.8649C67.6251 43.8366 38.528 44.9459 9.7841 44.0526C9.04809 44.033 8.41021 43.7581 7.70363 43.6502V43.6403Z" fill="#8400FF"/>
<path d="M27.998 86.5555C28.0177 82.3936 28.5182 78.3985 27.8312 74.266C27.1443 73.2746 18.5182 74.9825 18.7635 70.6537C18.9696 67.0022 27.6153 67.8954 28.2139 67.0414C29.0285 64.2243 26.5653 55.2525 29.0088 53.6427C29.9706 53.0145 31.2561 53.6231 32.0314 54.3593C34.8381 57.0292 31.9823 66.8451 34.7792 67.6991L48.2532 67.7188C50.0491 62.585 47.1541 51.8857 55.9863 53.7703C60.4809 54.7323 61.845 61.3679 58.6163 64.1065C57.1345 65.3629 54.1904 65.4513 55.2404 67.7384C58.6065 67.8169 61.9922 67.7777 65.368 67.758C68.7439 67.7384 71.0893 69.1519 71.6291 64.4795C72.2179 59.3949 70.7066 54.0059 77.6546 53.2697C86.6143 52.3176 87.9588 58.4623 88.5182 66.0599C89.0775 73.6574 89.3916 94.3886 87.5859 101.515C87.1345 103.282 86.4671 105.059 84.2983 104.401C80.422 103.233 83.8175 93.5641 81.7566 93.0439C73.7979 92.1506 77.0167 95.7923 76.1825 100.818C75.5937 104.362 71.5407 105.677 70.3239 102.271C70.2453 102.045 69.7645 99.8954 69.7645 99.758V93.4365L54.4259 93.2303C53.1894 94.477 54.1806 95.8807 54.0726 97.0586C53.8764 99.169 53.209 103.213 50.422 103.056C46.1237 102.811 49.1757 94.2218 47.1639 93.2402C46.3592 92.8475 36.1531 92.9064 34.7988 93.1518C34.4259 93.2205 33.8665 93.2893 33.7586 93.7113C33.052 96.4402 34.4259 103.547 29.7449 102.624C26.8204 102.045 28.6752 95.2623 27.5859 93.0929C25.6134 92.8868 21.1089 93.1715 19.5878 92.0819C18.2139 91.1003 17.9588 88.6561 19.1757 87.4684C19.5486 87.1052 21.6781 86.5359 22.0707 86.5359H28.0079L27.998 86.5555ZM55.0638 73.2059C54.6713 73.3335 54.4848 73.6476 54.3278 74.0009C53.9058 74.904 53.8371 86.4279 54.2198 86.958C57.0658 88.2144 60.4024 87.596 63.4544 87.6843C64.74 87.7236 69.264 88.7445 69.9706 87.7236L70.3533 73.8832C70.108 73.5396 67.1933 73.1764 66.5162 73.1273C64.8381 73.0095 56.1138 72.8525 55.0736 73.2059H55.0638ZM47.4976 87.6647C47.9097 87.3114 48.3023 78.3494 48.3219 76.7985C48.3219 75.8856 48.4985 74.8746 47.9588 74.0697C46.7714 72.558 36.8597 74.3445 34.5731 73.9715C33.8665 74.4132 33.9549 84.9163 34.4848 86.4083C35.4858 87.6451 45.2993 87.4193 47.5074 87.6647H47.4976ZM77.684 73.6083C76.8597 73.8537 76.7223 74.4917 76.634 75.2378C76.1531 78.9678 76.8793 83.2574 76.7321 87.0561C77.1148 88.4304 80.9127 87.7334 82.1492 88.0475C84.4357 84.2782 83.0913 79.174 83.0913 74.9433C82.6104 73.3237 78.9598 73.2353 77.684 73.6083Z" fill="#8400FF"/>
</svg>
