<svg width="143" height="164" viewBox="0 0 143 164" fill="none" xmlns="http://www.w3.org/2000/svg">
<path d="M104.251 1.47089C109.186 5.33282 111.357 12.2688 114.206 17.5709C116.648 22.1174 120.795 27.7359 121.977 32.7732C124.283 42.6283 119.367 58.6314 115.911 68.1313C115.414 69.4939 114.645 71.0826 113.766 72.2322C112.733 73.5754 108.32 77.1532 108.282 78.2317C108.249 79.1488 108.643 80.886 108.831 81.8805C110.007 88.1384 112.074 94.2801 112.92 100.609L119.548 128.03C122.991 127.274 126.137 126.603 129.736 126.706C135.563 126.874 144.084 129.251 142.746 136.677C140.544 148.896 111.861 157.453 103.475 148.367C97.0088 141.36 107.616 133.791 112.946 130.717C114.102 130.051 116.402 129.825 116.46 128.159C116.493 127.287 116.092 125.13 115.866 124.207C113.043 112.537 110.381 100.687 107.713 88.9263C106.919 85.426 106.492 81.8289 105.426 78.419C103.676 77.4374 101.899 77.1274 100.136 76.036C93.908 72.1869 79.0303 59.1287 75.7098 52.9031C72.0534 46.0446 72.1245 34.1876 72.0405 26.341C71.9952 22.3563 71.8337 16.7895 72.2407 12.9405C72.3376 12.004 73.3648 8.60063 73.9139 7.9419C74.3338 7.43817 75.4191 6.83756 76.0328 6.52112C82.0536 3.45998 89.0241 2.53001 95.5166 1.30297C99.3991 0.566748 100.71 -1.30609 104.257 1.47089H104.251ZM76.6724 9.29164C75.4708 10.8932 79.8249 10.7964 80.7875 10.6866C84.431 10.2862 97.7711 6.65674 100.148 4.2285C100.407 3.96372 101.059 3.30499 100.904 2.89167C100.523 1.89067 98.4301 3.35664 97.7259 3.52455C95.4972 4.06057 92.9454 4.08641 90.6908 4.57722C88.4362 5.06804 77.8223 7.75462 76.6724 9.29164ZM111.421 70.9276C113.631 68.0473 117.869 53.6522 118.689 49.5836C121.783 34.1359 118.85 31.4106 111.874 18.5267C110.22 15.472 108.76 11.9394 106.97 8.99456C106.434 8.11626 104.968 5.88177 104.341 5.21012C103.346 4.13808 101.169 6.89569 99.9611 7.619C95.8977 10.0537 83.2552 13.8962 78.7073 13.5152C78.0225 13.4571 76.1685 12.6886 75.7615 12.8307C74.5535 13.2504 75.0573 18.7657 75.025 20.1477C74.8119 30.3385 73.8945 46.0575 79.8055 54.6855C82.7643 59.006 96.1238 70.3981 100.788 73.2913C102.765 74.5183 104.832 75.6162 107.196 74.7314C108.017 74.4215 110.827 71.7091 111.421 70.9341V70.9276ZM105.73 147.32C113.153 153.959 137.514 146.526 140.188 136.962C140.828 134.688 140.143 132.796 138.282 131.278C134.962 128.566 125.808 128.908 121.88 129.98C118.831 130.813 120.588 133.216 120.982 135.257C121.279 136.787 121.945 139.28 119.568 139.093C118.618 139.022 117.985 133.022 117.403 132.092C115.956 130.607 107.855 136.845 106.602 138.234C104.348 140.72 102.745 144.64 105.73 147.314V147.32Z" fill="#F8F7FF"/>
<path d="M97.2994 66.8074C92.0991 63.4105 86.7953 58.78 82.635 54.1496C80.4644 51.7342 79.1013 49.235 81.2331 46.1222C82.3895 44.4301 86.931 42.3184 88.9272 41.763C91.0655 41.1688 93.3976 41.2011 95.5036 40.6457C99.7026 39.5414 104.347 37.2746 108.637 36.2219C110.698 35.7182 116.706 34.4976 117.636 37.1712C117.868 37.8364 118.127 39.7674 118.127 40.5036C118.127 41.6402 116.893 46.8648 116.525 48.2662C115.381 52.6254 110.724 66.5362 107.739 69.1646C104.457 72.0578 100.181 68.6803 97.2866 66.7945L97.2994 66.8074Z" fill="#F8F7FF"/>
<path d="M69.9086 81.9832C65.2444 87.1819 55.3798 87.7438 48.9649 86.6653C46.762 86.2972 44.262 85.5351 42.0784 84.9604C41.0965 84.9022 40.612 85.7934 40.3988 86.6136L31.1092 136.076C31.1932 136.554 31.29 136.967 31.7035 137.277C32.7113 138.039 36.4065 138.672 37.8923 139.253C43.4609 141.423 51.1678 145.989 53.4418 151.789C55.5866 157.252 50.6316 161.327 45.7413 162.567C34.9335 165.312 20.4112 162.361 10.7146 157.078C5.61755 154.301 -2.16691 148.534 0.565722 141.888C3.00119 135.96 12.9885 135.166 18.4925 135.327C21.5611 135.417 24.7524 136.347 27.7499 136.225C29.2228 135.443 29.5652 129.276 29.914 127.513C32.1105 116.392 34.2229 105.232 36.2643 94.1179C36.6584 91.9868 38.7321 86.026 37.5887 84.3275C37.2656 83.8496 28.9256 81.3374 27.498 80.782C24.3777 79.5678 17.8982 76.92 15.8052 74.5435C9.19646 67.0392 17.1489 51.9402 20.0495 44.0548C22.2653 38.0165 28.1052 18.526 32.7953 15.368C38.0086 11.8613 51.2647 14.7416 57.208 16.3367C62.8606 17.8544 70.4125 19.6045 73.1645 25.3199C75.0573 29.2464 73.901 34.626 74.056 38.9013C74.1788 42.253 74.9217 46.2054 75.0832 49.57C75.432 56.7966 74.7343 76.61 69.9086 81.9896V81.9832ZM33.2992 18.2741C31.7487 20.2309 32.9438 22.685 34.533 24.1768C38.9647 28.3423 54.3204 30.4993 60.2249 29.7631C62.3374 29.4983 64.5274 28.4392 66.6075 27.9548C67.8479 27.6642 69.521 28.2067 70.3156 26.8699C69.6373 22.7367 64.9214 21.2965 61.4136 20.1728C54.385 17.9189 42.5953 14.987 35.4762 16.905C34.9465 17.0471 33.6221 17.8737 33.3056 18.2741H33.2992ZM30.5794 23.9831C30.1079 24.1252 29.5523 24.9776 29.3132 25.4232C26.5806 30.5897 24.2356 39.6892 22.0069 45.5531C18.99 53.4772 14.778 60.0774 15.9667 69.151C16.6256 74.1689 24.2162 77.0298 28.4993 78.6637C33.312 80.4978 39.1132 82.0607 44.165 83.1198C52.35 84.8312 66.2781 86.8655 69.7924 76.8232C74.5276 63.3064 71.7304 48.1815 71.5689 34.245C71.5495 32.7532 72.5573 30.8674 70.8841 29.7954C67.1179 30.0666 63.4097 32.1526 59.637 32.4561C53.571 32.9469 39.0293 30.7253 34.1583 26.9926C33.2152 26.2693 31.4128 23.7377 30.5859 23.9831H30.5794ZM26.516 149.787C25.2563 148.992 27.7499 141.559 27.5496 139.893C27.4269 138.834 26.8584 138.453 25.8765 138.188C20.7988 136.825 8.66674 137.297 4.4289 140.636C-2.3736 145.989 9.00263 153.481 13.3567 155.644C21.6645 159.777 41.4066 164.279 49.1975 158.324C55.677 153.371 47.014 146.661 42.6469 144.233C41.0384 143.335 33.7384 139.906 32.3043 139.66C31.8069 139.576 31.2448 139.505 30.7603 139.686C29.1776 140.267 29.4102 148.721 27.8274 149.625C27.5238 149.8 26.7809 149.961 26.516 149.8V149.787Z" fill="#F8F7FF"/>
<path d="M24.0999 54.5231C26.6517 52.4113 31.1027 52.2305 34.378 52.7084C40.5732 53.6125 50.5864 55.9568 56.6137 57.7909C59.8825 58.7854 67.7962 61.4914 68.4874 65.2306C69.1786 68.9699 66.9434 76.5 63.8684 78.7409C60.7934 80.9819 52.3629 80.1165 48.4158 79.6386C41.7942 78.8378 32.7113 77.5914 26.9036 74.4851C24.3648 73.1289 21.167 70.7135 20.6438 67.6459C19.9978 63.8292 21.0184 57.0676 24.0999 54.5167V54.5231Z" fill="#F8F7FF"/>
</svg>
