<svg width="84" height="127" viewBox="0 0 84 127" fill="none" xmlns="http://www.w3.org/2000/svg">
<path d="M65.6188 44.9168C65.9427 44.5339 68.3176 36.5634 68.5825 35.4346C71.134 24.5193 70.3293 12.642 58.4255 8.03832C43.8328 2.39416 30.3784 12.5144 26.1487 26.3156C25.2164 29.3683 25.03 34.7867 23.6953 37.2407C21.9878 40.3622 17.9446 37.7708 17.4834 34.4432C16.345 26.1094 22.0663 14.8309 27.925 9.12789C37.9642 -0.638964 58.3175 -3.94692 69.1615 6.1144C80.6041 16.7352 78.0526 32.7548 73.0182 45.9376C76.9731 47.783 80.3391 49.8836 82.135 54.0652C87.4343 66.4529 80.4373 98.5706 72.5472 109.506C56.8749 131.209 23.7346 132.337 8.17035 110.036C0.780747 99.4443 -0.58334 75.1891 0.19193 62.4284C1.44806 41.9033 15.1281 45.9769 31.0457 45.3977C41.3303 45.0247 51.399 44.7597 61.7032 44.9953C62.7631 45.0149 64.7945 45.8885 65.6188 44.9168ZM51.4186 50.5315C39.9073 51.6701 27.5619 50.9634 16.1487 52.3376C9.51478 53.1327 8.82785 54.4873 7.58153 61.0149C5.30479 72.9707 6.02117 96.7841 13.8327 106.669C30.9476 128.313 64.8239 121.599 72.871 95.2823C75.344 87.2038 79.3774 64.4505 76.0113 57.1278C73.3224 51.2873 59.8484 50.9732 54.3921 50.3646L51.4186 50.5413V50.5315Z" fill="#8400FF"/>
<path d="M38.7984 63.4887C49.0929 61.7709 54.0585 68.3083 52.2135 78.0555C51.7032 80.7254 48.9358 83.2775 48.8279 85.4272C48.7101 87.8812 51.1733 93.1327 51.4972 96.1953C51.978 100.75 52.1841 106.276 46.6591 107.366C41.1341 108.455 30.5845 108.318 29.4167 101.427C28.4059 95.4788 32.0075 91.307 33.7248 86.3794C35.2165 82.0702 33.558 82.6003 32.1939 79.4886C29.7405 73.8935 32.1939 64.588 38.7984 63.4887ZM40.7023 69.9966C37.5619 70.7132 37.2773 76.6027 39.5246 78.6739C45.7759 84.4162 49.505 67.9941 40.7023 69.9966ZM41.085 85.7021C40.4079 85.9082 39.9074 86.6935 39.6424 87.3217C38.9162 89.0101 37.6503 93.2996 37.1694 95.1941C36.8554 96.4604 36.1193 99.0125 36.9829 99.9941C38.0035 101.152 43.8721 101.447 44.6866 100.406C45.6974 99.1303 44.5197 86.6444 43.1262 85.8002C42.5963 85.4763 41.6836 85.5156 41.0948 85.6923L41.085 85.7021Z" fill="#8400FF"/>
</svg>
